<svg xmlns="http://www.w3.org/2000/svg" xmlns:xlink="http://www.w3.org/1999/xlink" width="500" zoomAndPan="magnify" viewBox="0 0 375 374.999991" height="500" preserveAspectRatio="xMidYMid meet" version="1.0"><defs><g/><clipPath id="id1"><path d="M 112.5 163.089844 L 262.5 163.089844 L 262.5 211.839844 L 112.5 211.839844 Z M 112.5 163.089844 " clip-rule="nonzero"/></clipPath><clipPath id="id2"><path d="M 37.5 129.054688 L 170.25 129.054688 L 170.25 156.804688 L 37.5 156.804688 Z M 37.5 129.054688 " clip-rule="nonzero"/></clipPath><clipPath id="id3"><path d="M 208.492188 198.484375 L 337.492188 198.484375 L 337.492188 225.484375 L 208.492188 225.484375 Z M 208.492188 198.484375 " clip-rule="nonzero"/></clipPath></defs><g clip-path="url(#id1)"><path fill="#ffffff" d="M 262.5 165.507812 C 262.5 164.183594 261.441406 163.128906 260.117188 163.128906 C 258.796875 163.128906 257.738281 164.183594 257.738281 165.507812 C 257.738281 166.652344 258.574219 167.621094 259.675781 167.839844 L 259.675781 192.203125 L 131.289062 192.203125 L 116.25 207.488281 C 115.851562 207.222656 115.410156 207.046875 114.882812 207.046875 C 113.558594 207.046875 112.5 208.105469 112.5 209.425781 C 112.5 210.746094 113.558594 211.804688 114.882812 211.804688 C 116.203125 211.804688 117.261719 210.746094 117.261719 209.425781 C 117.261719 208.898438 117.085938 208.414062 116.820312 208.015625 L 131.640625 192.949219 L 260.515625 192.949219 L 260.515625 167.839844 C 261.617188 167.664062 262.5 166.695312 262.5 165.507812 Z M 262.5 165.507812 " fill-opacity="1" fill-rule="nonzero"/></g><g clip-path="url(#id2)"><path fill="#000000" d="M 168.304688 129.078125 C 167.226562 129.078125 166.359375 129.933594 166.359375 131.003906 C 166.359375 131.039062 166.359375 131.074219 166.359375 131.113281 L 109.816406 131.113281 L 87.957031 154.496094 L 41.355469 154.496094 C 41.171875 153.601562 40.417969 152.925781 39.445312 152.925781 C 38.363281 152.925781 37.5 153.78125 37.5 154.851562 C 37.5 155.921875 38.363281 156.78125 39.445312 156.78125 C 40.417969 156.78125 41.210938 156.066406 41.355469 155.136719 L 88.246094 155.136719 L 110.105469 131.753906 L 166.539062 131.753906 C 166.828125 132.433594 167.511719 132.933594 168.304688 132.933594 C 169.386719 132.933594 170.25 132.074219 170.25 131.003906 C 170.25 129.933594 169.386719 129.078125 168.304688 129.078125 Z M 168.304688 129.078125 " fill-opacity="1" fill-rule="nonzero"/></g><g clip-path="url(#id3)"><path fill="#000000" d="M 210.382812 225.464844 C 211.429688 225.464844 212.269531 224.632812 212.269531 223.589844 C 212.269531 223.554688 212.269531 223.519531 212.269531 223.484375 L 267.214844 223.484375 L 288.460938 200.730469 L 333.746094 200.730469 C 333.921875 201.597656 334.65625 202.257812 335.601562 202.257812 C 336.652344 202.257812 337.492188 201.425781 337.492188 200.382812 C 337.492188 199.339844 336.652344 198.507812 335.601562 198.507812 C 334.65625 198.507812 333.886719 199.199219 333.746094 200.105469 L 288.179688 200.105469 L 266.9375 222.859375 L 212.097656 222.859375 C 211.816406 222.199219 211.152344 221.714844 210.382812 221.714844 C 209.332031 221.714844 208.492188 222.546875 208.492188 223.589844 C 208.492188 224.632812 209.332031 225.464844 210.382812 225.464844 Z M 210.382812 225.464844 " fill-opacity="1" fill-rule="nonzero"/></g><g fill="#000000" fill-opacity="1"><g transform="translate(104.695589, 184.696067)"><g><path d="M 22.75 -32.609375 C 20.113281 -32.609375 18.050781 -31.523438 16.5625 -29.359375 C 15.082031 -27.191406 14.34375 -24.203125 14.34375 -20.390625 C 14.34375 -12.472656 17.351562 -8.515625 23.375 -8.515625 C 25.195312 -8.515625 26.957031 -8.769531 28.65625 -9.28125 C 30.363281 -9.789062 32.082031 -10.398438 33.8125 -11.109375 L 33.8125 -1.71875 C 30.375 -0.195312 26.492188 0.5625 22.171875 0.5625 C 15.960938 0.5625 11.203125 -1.234375 7.890625 -4.828125 C 4.578125 -8.429688 2.921875 -13.640625 2.921875 -20.453125 C 2.921875 -24.703125 3.722656 -28.441406 5.328125 -31.671875 C 6.929688 -34.898438 9.238281 -37.378906 12.25 -39.109375 C 15.257812 -40.847656 18.800781 -41.71875 22.875 -41.71875 C 27.3125 -41.71875 31.554688 -40.75 35.609375 -38.8125 L 32.203125 -30.078125 C 30.691406 -30.785156 29.175781 -31.382812 27.65625 -31.875 C 26.132812 -32.363281 24.5 -32.609375 22.75 -32.609375 Z M 22.75 -32.609375 "/></g></g></g><g fill="#000000" fill-opacity="1"><g transform="translate(142.074962, 184.696067)"><g><path d="M 42.921875 -20.625 C 42.921875 -13.695312 41.222656 -8.429688 37.828125 -4.828125 C 34.441406 -1.234375 29.472656 0.5625 22.921875 0.5625 C 16.472656 0.5625 11.523438 -1.242188 8.078125 -4.859375 C 4.640625 -8.484375 2.921875 -13.753906 2.921875 -20.671875 C 2.921875 -27.515625 4.628906 -32.738281 8.046875 -36.34375 C 11.472656 -39.957031 16.453125 -41.765625 22.984375 -41.765625 C 29.523438 -41.765625 34.484375 -39.972656 37.859375 -36.390625 C 41.234375 -32.816406 42.921875 -27.5625 42.921875 -20.625 Z M 14.625 -20.625 C 14.625 -12.664062 17.390625 -8.6875 22.921875 -8.6875 C 25.734375 -8.6875 27.816406 -9.648438 29.171875 -11.578125 C 30.535156 -13.515625 31.21875 -16.53125 31.21875 -20.625 C 31.21875 -24.726562 30.53125 -27.757812 29.15625 -29.71875 C 27.78125 -31.675781 25.722656 -32.65625 22.984375 -32.65625 C 17.410156 -32.65625 14.625 -28.644531 14.625 -20.625 Z M 14.625 -20.625 "/></g></g></g><g fill="#000000" fill-opacity="1"><g transform="translate(187.976493, 184.696067)"><g><path d="M 42.921875 -20.625 C 42.921875 -13.695312 41.222656 -8.429688 37.828125 -4.828125 C 34.441406 -1.234375 29.472656 0.5625 22.921875 0.5625 C 16.472656 0.5625 11.523438 -1.242188 8.078125 -4.859375 C 4.640625 -8.484375 2.921875 -13.753906 2.921875 -20.671875 C 2.921875 -27.515625 4.628906 -32.738281 8.046875 -36.34375 C 11.472656 -39.957031 16.453125 -41.765625 22.984375 -41.765625 C 29.523438 -41.765625 34.484375 -39.972656 37.859375 -36.390625 C 41.234375 -32.816406 42.921875 -27.5625 42.921875 -20.625 Z M 14.625 -20.625 C 14.625 -12.664062 17.390625 -8.6875 22.921875 -8.6875 C 25.734375 -8.6875 27.816406 -9.648438 29.171875 -11.578125 C 30.535156 -13.515625 31.21875 -16.53125 31.21875 -20.625 C 31.21875 -24.726562 30.53125 -27.757812 29.15625 -29.71875 C 27.78125 -31.675781 25.722656 -32.65625 22.984375 -32.65625 C 17.410156 -32.65625 14.625 -28.644531 14.625 -20.625 Z M 14.625 -20.625 "/></g></g></g><g fill="#000000" fill-opacity="1"><g transform="translate(233.878025, 184.696067)"><g><path d="M 34.296875 -28.046875 C 34.296875 -23.453125 32.9375 -19.898438 30.21875 -17.390625 C 27.507812 -14.890625 23.660156 -13.640625 18.671875 -13.640625 L 15.5625 -13.640625 L 15.5625 0 L 4.4375 0 L 4.4375 -41.125 L 18.671875 -41.125 C 23.867188 -41.125 27.769531 -39.988281 30.375 -37.71875 C 32.988281 -35.445312 34.296875 -32.222656 34.296875 -28.046875 Z M 15.5625 -22.703125 L 17.578125 -22.703125 C 19.242188 -22.703125 20.566406 -23.171875 21.546875 -24.109375 C 22.535156 -25.046875 23.03125 -26.335938 23.03125 -27.984375 C 23.03125 -30.765625 21.492188 -32.15625 18.421875 -32.15625 L 15.5625 -32.15625 Z M 15.5625 -22.703125 "/></g></g></g><g fill="#000000" fill-opacity="1"><g transform="translate(152.485347, 212.366816)"><g><path d="M 13.515625 -3.078125 L 1.3125 -8.421875 L 1.3125 -9.671875 L 13.515625 -15.75 L 13.515625 -13.859375 L 3.59375 -9.140625 L 13.515625 -4.984375 Z M 13.515625 -3.078125 "/></g></g></g><g fill="#000000" fill-opacity="1"><g transform="translate(167.342687, 212.366816)"><g><path d="M 10.5 -16.890625 C 8.457031 -16.890625 6.84375 -16.207031 5.65625 -14.84375 C 4.476562 -13.488281 3.890625 -11.632812 3.890625 -9.28125 C 3.890625 -6.851562 4.457031 -4.972656 5.59375 -3.640625 C 6.738281 -2.316406 8.363281 -1.65625 10.46875 -1.65625 C 11.757812 -1.65625 13.234375 -1.890625 14.890625 -2.359375 L 14.890625 -0.46875 C 13.609375 0.0078125 12.023438 0.25 10.140625 0.25 C 7.410156 0.25 5.300781 -0.578125 3.8125 -2.234375 C 2.332031 -3.890625 1.59375 -6.242188 1.59375 -9.296875 C 1.59375 -11.210938 1.945312 -12.890625 2.65625 -14.328125 C 3.375 -15.765625 4.40625 -16.867188 5.75 -17.640625 C 7.101562 -18.421875 8.691406 -18.8125 10.515625 -18.8125 C 12.460938 -18.8125 14.164062 -18.457031 15.625 -17.75 L 14.703125 -15.890625 C 13.296875 -16.554688 11.894531 -16.890625 10.5 -16.890625 Z M 10.5 -16.890625 "/></g></g></g><g fill="#000000" fill-opacity="1"><g transform="translate(183.735236, 212.366816)"><g><path d="M 18.65625 -9.296875 C 18.65625 -6.328125 17.898438 -3.992188 16.390625 -2.296875 C 14.890625 -0.597656 12.804688 0.25 10.140625 0.25 C 7.410156 0.25 5.300781 -0.582031 3.8125 -2.25 C 2.332031 -3.925781 1.59375 -6.285156 1.59375 -9.328125 C 1.59375 -12.347656 2.332031 -14.6875 3.8125 -16.34375 C 5.300781 -18.007812 7.414062 -18.84375 10.15625 -18.84375 C 12.820312 -18.84375 14.90625 -17.992188 16.40625 -16.296875 C 17.90625 -14.609375 18.65625 -12.273438 18.65625 -9.296875 Z M 3.875 -9.296875 C 3.875 -6.785156 4.40625 -4.878906 5.46875 -3.578125 C 6.539062 -2.285156 8.097656 -1.640625 10.140625 -1.640625 C 12.191406 -1.640625 13.738281 -2.285156 14.78125 -3.578125 C 15.832031 -4.867188 16.359375 -6.773438 16.359375 -9.296875 C 16.359375 -11.796875 15.835938 -13.6875 14.796875 -14.96875 C 13.753906 -16.257812 12.207031 -16.90625 10.15625 -16.90625 C 8.101562 -16.90625 6.539062 -16.253906 5.46875 -14.953125 C 4.40625 -13.660156 3.875 -11.773438 3.875 -9.296875 Z M 3.875 -9.296875 "/></g></g></g><g fill="#000000" fill-opacity="1"><g transform="translate(203.972173, 212.366816)"><g><path d="M 17.359375 -9.453125 C 17.359375 -6.390625 16.523438 -4.046875 14.859375 -2.421875 C 13.203125 -0.804688 10.8125 0 7.6875 0 L 2.546875 0 L 2.546875 -18.546875 L 8.234375 -18.546875 C 11.117188 -18.546875 13.359375 -17.742188 14.953125 -16.140625 C 16.554688 -14.546875 17.359375 -12.316406 17.359375 -9.453125 Z M 15.078125 -9.375 C 15.078125 -11.789062 14.46875 -13.613281 13.25 -14.84375 C 12.039062 -16.070312 10.238281 -16.6875 7.84375 -16.6875 L 4.703125 -16.6875 L 4.703125 -1.859375 L 7.328125 -1.859375 C 9.898438 -1.859375 11.832031 -2.488281 13.125 -3.75 C 14.425781 -5.019531 15.078125 -6.894531 15.078125 -9.375 Z M 15.078125 -9.375 "/></g></g></g><g fill="#000000" fill-opacity="1"><g transform="translate(222.914962, 212.366816)"><g><path d="M 12.890625 0 L 2.546875 0 L 2.546875 -18.546875 L 12.890625 -18.546875 L 12.890625 -16.640625 L 4.703125 -16.640625 L 4.703125 -10.65625 L 12.390625 -10.65625 L 12.390625 -8.75 L 4.703125 -8.75 L 4.703125 -1.921875 L 12.890625 -1.921875 Z M 12.890625 0 "/></g></g></g><g fill="#000000" fill-opacity="1"><g transform="translate(237.366294, 212.366816)"><g><path d="M 1.3125 -4.984375 L 11.25 -9.125 L 1.3125 -13.859375 L 1.3125 -15.75 L 13.515625 -9.671875 L 13.515625 -8.421875 L 1.3125 -3.078125 Z M 1.3125 -4.984375 "/></g></g></g><g fill="#000000" fill-opacity="1"><g transform="translate(58.787109, 250.078767)"><g><path d="M 7.96875 -4.515625 L 2.78125 -4.515625 L 0.984375 0 L 0 0 L 5.140625 -12.84375 L 5.71875 -12.84375 L 10.75 0 L 9.75 0 Z M 3.09375 -5.328125 L 7.671875 -5.328125 L 5.9375 -9.9375 C 5.789062 -10.289062 5.613281 -10.789062 5.40625 -11.4375 C 5.25 -10.875 5.078125 -10.367188 4.890625 -9.921875 Z M 3.09375 -5.328125 "/></g></g></g><g fill="#000000" fill-opacity="1"><g transform="translate(69.532607, 250.078767)"><g><path d="M 5.65625 0.171875 C 4.195312 0.171875 3.128906 -0.375 2.453125 -1.46875 L 2.390625 -1.46875 L 2.421875 -0.734375 C 2.441406 -0.304688 2.453125 0.164062 2.453125 0.6875 L 2.453125 4.3125 L 1.59375 4.3125 L 1.59375 -9.515625 L 2.328125 -9.515625 L 2.5 -8.15625 L 2.546875 -8.15625 C 3.203125 -9.1875 4.242188 -9.703125 5.671875 -9.703125 C 6.960938 -9.703125 7.941406 -9.28125 8.609375 -8.4375 C 9.285156 -7.59375 9.625 -6.363281 9.625 -4.75 C 9.625 -3.1875 9.269531 -1.972656 8.5625 -1.109375 C 7.851562 -0.253906 6.882812 0.171875 5.65625 0.171875 Z M 5.640625 -0.59375 C 6.617188 -0.59375 7.375 -0.953125 7.90625 -1.671875 C 8.4375 -2.398438 8.703125 -3.414062 8.703125 -4.71875 C 8.703125 -7.507812 7.691406 -8.90625 5.671875 -8.90625 C 4.566406 -8.90625 3.753906 -8.597656 3.234375 -7.984375 C 2.710938 -7.378906 2.453125 -6.390625 2.453125 -5.015625 L 2.453125 -4.734375 C 2.453125 -3.242188 2.703125 -2.179688 3.203125 -1.546875 C 3.703125 -0.910156 4.515625 -0.59375 5.640625 -0.59375 Z M 5.640625 -0.59375 "/></g></g></g><g fill="#000000" fill-opacity="1"><g transform="translate(80.190672, 250.078767)"><g><path d="M 5.34375 -9.703125 C 5.738281 -9.703125 6.171875 -9.660156 6.640625 -9.578125 L 6.46875 -8.734375 C 6.070312 -8.835938 5.660156 -8.890625 5.234375 -8.890625 C 4.421875 -8.890625 3.753906 -8.546875 3.234375 -7.859375 C 2.710938 -7.171875 2.453125 -6.300781 2.453125 -5.25 L 2.453125 0 L 1.59375 0 L 1.59375 -9.515625 L 2.328125 -9.515625 L 2.421875 -7.796875 L 2.46875 -7.796875 C 2.863281 -8.492188 3.28125 -8.984375 3.71875 -9.265625 C 4.164062 -9.554688 4.707031 -9.703125 5.34375 -9.703125 Z M 5.34375 -9.703125 "/></g></g></g><g fill="#000000" fill-opacity="1"><g transform="translate(87.159071, 250.078767)"><g><path d="M 5.4375 0.171875 C 4.050781 0.171875 2.972656 -0.25 2.203125 -1.09375 C 1.429688 -1.945312 1.046875 -3.144531 1.046875 -4.6875 C 1.046875 -6.195312 1.414062 -7.410156 2.15625 -8.328125 C 2.90625 -9.242188 3.914062 -9.703125 5.1875 -9.703125 C 6.300781 -9.703125 7.179688 -9.304688 7.828125 -8.515625 C 8.472656 -7.734375 8.796875 -6.675781 8.796875 -5.34375 L 8.796875 -4.640625 L 1.953125 -4.640625 C 1.960938 -3.328125 2.265625 -2.328125 2.859375 -1.640625 C 3.460938 -0.953125 4.320312 -0.609375 5.4375 -0.609375 C 5.976562 -0.609375 6.453125 -0.644531 6.859375 -0.71875 C 7.273438 -0.800781 7.796875 -0.96875 8.421875 -1.21875 L 8.421875 -0.421875 C 7.890625 -0.191406 7.394531 -0.0351562 6.9375 0.046875 C 6.476562 0.128906 5.976562 0.171875 5.4375 0.171875 Z M 5.1875 -8.921875 C 4.269531 -8.921875 3.53125 -8.617188 2.96875 -8.015625 C 2.414062 -7.410156 2.09375 -6.539062 2 -5.40625 L 7.890625 -5.40625 C 7.890625 -6.507812 7.648438 -7.367188 7.171875 -7.984375 C 6.691406 -8.609375 6.03125 -8.921875 5.1875 -8.921875 Z M 5.1875 -8.921875 "/></g></g></g><g fill="#000000" fill-opacity="1"><g transform="translate(96.986524, 250.078767)"><g><path d="M 8.21875 0 L 8.21875 -6.171875 C 8.21875 -7.128906 8.015625 -7.820312 7.609375 -8.25 C 7.210938 -8.6875 6.59375 -8.90625 5.75 -8.90625 C 4.613281 -8.90625 3.78125 -8.617188 3.25 -8.046875 C 2.71875 -7.472656 2.453125 -6.539062 2.453125 -5.25 L 2.453125 0 L 1.59375 0 L 1.59375 -9.515625 L 2.328125 -9.515625 L 2.5 -8.203125 L 2.546875 -8.203125 C 3.160156 -9.203125 4.257812 -9.703125 5.84375 -9.703125 C 8 -9.703125 9.078125 -8.539062 9.078125 -6.21875 L 9.078125 0 Z M 8.21875 0 "/></g></g></g><g fill="#000000" fill-opacity="1"><g transform="translate(107.548413, 250.078767)"><g><path d="M 5.078125 -9.703125 C 5.765625 -9.703125 6.359375 -9.570312 6.859375 -9.3125 C 7.359375 -9.0625 7.804688 -8.632812 8.203125 -8.03125 L 8.265625 -8.03125 C 8.222656 -8.769531 8.203125 -9.488281 8.203125 -10.1875 L 8.203125 -13.609375 L 9.0625 -13.609375 L 9.0625 0 L 8.5 0 L 8.28125 -1.453125 L 8.203125 -1.453125 C 7.484375 -0.367188 6.445312 0.171875 5.09375 0.171875 C 3.78125 0.171875 2.773438 -0.234375 2.078125 -1.046875 C 1.390625 -1.867188 1.046875 -3.0625 1.046875 -4.625 C 1.046875 -6.269531 1.390625 -7.523438 2.078125 -8.390625 C 2.765625 -9.265625 3.765625 -9.703125 5.078125 -9.703125 Z M 5.078125 -8.90625 C 4.035156 -8.90625 3.253906 -8.539062 2.734375 -7.8125 C 2.210938 -7.082031 1.953125 -6.023438 1.953125 -4.640625 C 1.953125 -1.941406 3 -0.59375 5.09375 -0.59375 C 6.164062 -0.59375 6.953125 -0.90625 7.453125 -1.53125 C 7.953125 -2.15625 8.203125 -3.1875 8.203125 -4.625 L 8.203125 -4.765625 C 8.203125 -6.234375 7.957031 -7.289062 7.46875 -7.9375 C 6.976562 -8.582031 6.179688 -8.90625 5.078125 -8.90625 Z M 5.078125 -8.90625 "/></g></g></g><g fill="#000000" fill-opacity="1"><g transform="translate(118.206478, 250.078767)"><g><path d="M 5.4375 0.171875 C 4.050781 0.171875 2.972656 -0.25 2.203125 -1.09375 C 1.429688 -1.945312 1.046875 -3.144531 1.046875 -4.6875 C 1.046875 -6.195312 1.414062 -7.410156 2.15625 -8.328125 C 2.90625 -9.242188 3.914062 -9.703125 5.1875 -9.703125 C 6.300781 -9.703125 7.179688 -9.304688 7.828125 -8.515625 C 8.472656 -7.734375 8.796875 -6.675781 8.796875 -5.34375 L 8.796875 -4.640625 L 1.953125 -4.640625 C 1.960938 -3.328125 2.265625 -2.328125 2.859375 -1.640625 C 3.460938 -0.953125 4.320312 -0.609375 5.4375 -0.609375 C 5.976562 -0.609375 6.453125 -0.644531 6.859375 -0.71875 C 7.273438 -0.800781 7.796875 -0.96875 8.421875 -1.21875 L 8.421875 -0.421875 C 7.890625 -0.191406 7.394531 -0.0351562 6.9375 0.046875 C 6.476562 0.128906 5.976562 0.171875 5.4375 0.171875 Z M 5.1875 -8.921875 C 4.269531 -8.921875 3.53125 -8.617188 2.96875 -8.015625 C 2.414062 -7.410156 2.09375 -6.539062 2 -5.40625 L 7.890625 -5.40625 C 7.890625 -6.507812 7.648438 -7.367188 7.171875 -7.984375 C 6.691406 -8.609375 6.03125 -8.921875 5.1875 -8.921875 Z M 5.1875 -8.921875 "/></g></g></g><g fill="#000000" fill-opacity="1"><g transform="translate(128.033931, 250.078767)"><g><path d="M 8.21875 0 L 8.21875 -6.171875 C 8.21875 -7.128906 8.015625 -7.820312 7.609375 -8.25 C 7.210938 -8.6875 6.59375 -8.90625 5.75 -8.90625 C 4.613281 -8.90625 3.78125 -8.617188 3.25 -8.046875 C 2.71875 -7.472656 2.453125 -6.539062 2.453125 -5.25 L 2.453125 0 L 1.59375 0 L 1.59375 -9.515625 L 2.328125 -9.515625 L 2.5 -8.203125 L 2.546875 -8.203125 C 3.160156 -9.203125 4.257812 -9.703125 5.84375 -9.703125 C 8 -9.703125 9.078125 -8.539062 9.078125 -6.21875 L 9.078125 0 Z M 8.21875 0 "/></g></g></g><g fill="#000000" fill-opacity="1"><g transform="translate(138.59582, 250.078767)"><g><path d="M 5.078125 -9.703125 C 5.765625 -9.703125 6.359375 -9.570312 6.859375 -9.3125 C 7.359375 -9.0625 7.804688 -8.632812 8.203125 -8.03125 L 8.265625 -8.03125 C 8.222656 -8.769531 8.203125 -9.488281 8.203125 -10.1875 L 8.203125 -13.609375 L 9.0625 -13.609375 L 9.0625 0 L 8.5 0 L 8.28125 -1.453125 L 8.203125 -1.453125 C 7.484375 -0.367188 6.445312 0.171875 5.09375 0.171875 C 3.78125 0.171875 2.773438 -0.234375 2.078125 -1.046875 C 1.390625 -1.867188 1.046875 -3.0625 1.046875 -4.625 C 1.046875 -6.269531 1.390625 -7.523438 2.078125 -8.390625 C 2.765625 -9.265625 3.765625 -9.703125 5.078125 -9.703125 Z M 5.078125 -8.90625 C 4.035156 -8.90625 3.253906 -8.539062 2.734375 -7.8125 C 2.210938 -7.082031 1.953125 -6.023438 1.953125 -4.640625 C 1.953125 -1.941406 3 -0.59375 5.09375 -0.59375 C 6.164062 -0.59375 6.953125 -0.90625 7.453125 -1.53125 C 7.953125 -2.15625 8.203125 -3.1875 8.203125 -4.625 L 8.203125 -4.765625 C 8.203125 -6.234375 7.957031 -7.289062 7.46875 -7.9375 C 6.976562 -8.582031 6.179688 -8.90625 5.078125 -8.90625 Z M 5.078125 -8.90625 "/></g></g></g><g fill="#000000" fill-opacity="1"><g transform="translate(149.253885, 250.078767)"><g><path d="M 9.453125 -4.765625 C 9.453125 -3.210938 9.078125 -2 8.328125 -1.125 C 7.578125 -0.257812 6.539062 0.171875 5.21875 0.171875 C 4.382812 0.171875 3.648438 -0.0234375 3.015625 -0.421875 C 2.378906 -0.828125 1.890625 -1.40625 1.546875 -2.15625 C 1.210938 -2.914062 1.046875 -3.785156 1.046875 -4.765625 C 1.046875 -6.316406 1.421875 -7.523438 2.171875 -8.390625 C 2.921875 -9.265625 3.953125 -9.703125 5.265625 -9.703125 C 6.578125 -9.703125 7.601562 -9.257812 8.34375 -8.375 C 9.082031 -7.5 9.453125 -6.296875 9.453125 -4.765625 Z M 1.953125 -4.765625 C 1.953125 -3.460938 2.238281 -2.441406 2.8125 -1.703125 C 3.382812 -0.972656 4.195312 -0.609375 5.25 -0.609375 C 6.300781 -0.609375 7.113281 -0.972656 7.6875 -1.703125 C 8.257812 -2.441406 8.546875 -3.460938 8.546875 -4.765625 C 8.546875 -6.078125 8.253906 -7.09375 7.671875 -7.8125 C 7.097656 -8.539062 6.285156 -8.90625 5.234375 -8.90625 C 4.179688 -8.90625 3.367188 -8.546875 2.796875 -7.828125 C 2.234375 -7.109375 1.953125 -6.085938 1.953125 -4.765625 Z M 1.953125 -4.765625 "/></g></g></g><g fill="#000000" fill-opacity="1"><g transform="translate(159.745827, 250.078767)"><g/></g></g><g fill="#000000" fill-opacity="1"><g transform="translate(164.397255, 250.078767)"><g><path d="M 5.390625 0.171875 C 4.035156 0.171875 2.972656 -0.253906 2.203125 -1.109375 C 1.429688 -1.960938 1.046875 -3.160156 1.046875 -4.703125 C 1.046875 -6.273438 1.441406 -7.5 2.234375 -8.375 C 3.035156 -9.257812 4.128906 -9.703125 5.515625 -9.703125 C 6.335938 -9.703125 7.128906 -9.554688 7.890625 -9.265625 L 7.640625 -8.5 C 6.828125 -8.769531 6.113281 -8.90625 5.5 -8.90625 C 4.332031 -8.90625 3.445312 -8.546875 2.84375 -7.828125 C 2.25 -7.109375 1.953125 -6.070312 1.953125 -4.71875 C 1.953125 -3.4375 2.25 -2.429688 2.84375 -1.703125 C 3.445312 -0.972656 4.289062 -0.609375 5.375 -0.609375 C 6.238281 -0.609375 7.039062 -0.765625 7.78125 -1.078125 L 7.78125 -0.265625 C 7.175781 0.0234375 6.378906 0.171875 5.390625 0.171875 Z M 5.390625 0.171875 "/></g></g></g><g fill="#000000" fill-opacity="1"><g transform="translate(172.904472, 250.078767)"><g><path d="M 9.453125 -4.765625 C 9.453125 -3.210938 9.078125 -2 8.328125 -1.125 C 7.578125 -0.257812 6.539062 0.171875 5.21875 0.171875 C 4.382812 0.171875 3.648438 -0.0234375 3.015625 -0.421875 C 2.378906 -0.828125 1.890625 -1.40625 1.546875 -2.15625 C 1.210938 -2.914062 1.046875 -3.785156 1.046875 -4.765625 C 1.046875 -6.316406 1.421875 -7.523438 2.171875 -8.390625 C 2.921875 -9.265625 3.953125 -9.703125 5.265625 -9.703125 C 6.578125 -9.703125 7.601562 -9.257812 8.34375 -8.375 C 9.082031 -7.5 9.453125 -6.296875 9.453125 -4.765625 Z M 1.953125 -4.765625 C 1.953125 -3.460938 2.238281 -2.441406 2.8125 -1.703125 C 3.382812 -0.972656 4.195312 -0.609375 5.25 -0.609375 C 6.300781 -0.609375 7.113281 -0.972656 7.6875 -1.703125 C 8.257812 -2.441406 8.546875 -3.460938 8.546875 -4.765625 C 8.546875 -6.078125 8.253906 -7.09375 7.671875 -7.8125 C 7.097656 -8.539062 6.285156 -8.90625 5.234375 -8.90625 C 4.179688 -8.90625 3.367188 -8.546875 2.796875 -7.828125 C 2.234375 -7.109375 1.953125 -6.085938 1.953125 -4.765625 Z M 1.953125 -4.765625 "/></g></g></g><g fill="#000000" fill-opacity="1"><g transform="translate(183.396415, 250.078767)"><g><path d="M 13.46875 0 L 13.46875 -6.234375 C 13.46875 -7.160156 13.285156 -7.835938 12.921875 -8.265625 C 12.566406 -8.691406 12.015625 -8.90625 11.265625 -8.90625 C 10.296875 -8.90625 9.578125 -8.632812 9.109375 -8.09375 C 8.640625 -7.5625 8.40625 -6.722656 8.40625 -5.578125 L 8.40625 0 L 7.53125 0 L 7.53125 -6.5 C 7.53125 -8.101562 6.796875 -8.90625 5.328125 -8.90625 C 4.328125 -8.90625 3.597656 -8.613281 3.140625 -8.03125 C 2.679688 -7.457031 2.453125 -6.53125 2.453125 -5.25 L 2.453125 0 L 1.59375 0 L 1.59375 -9.515625 L 2.3125 -9.515625 L 2.5 -8.203125 L 2.546875 -8.203125 C 2.804688 -8.679688 3.175781 -9.050781 3.65625 -9.3125 C 4.144531 -9.570312 4.679688 -9.703125 5.265625 -9.703125 C 6.765625 -9.703125 7.726562 -9.132812 8.15625 -8 L 8.1875 -8 C 8.5 -8.550781 8.914062 -8.972656 9.4375 -9.265625 C 9.957031 -9.554688 10.550781 -9.703125 11.21875 -9.703125 C 12.257812 -9.703125 13.035156 -9.421875 13.546875 -8.859375 C 14.066406 -8.304688 14.328125 -7.425781 14.328125 -6.21875 L 14.328125 0 Z M 13.46875 0 "/></g></g></g><g fill="#000000" fill-opacity="1"><g transform="translate(199.204275, 250.078767)"><g/></g></g><g fill="#000000" fill-opacity="1"><g transform="translate(203.855703, 250.078767)"><g><path d="M 5.65625 0.171875 C 4.195312 0.171875 3.128906 -0.375 2.453125 -1.46875 L 2.390625 -1.46875 L 2.421875 -0.734375 C 2.441406 -0.304688 2.453125 0.164062 2.453125 0.6875 L 2.453125 4.3125 L 1.59375 4.3125 L 1.59375 -9.515625 L 2.328125 -9.515625 L 2.5 -8.15625 L 2.546875 -8.15625 C 3.203125 -9.1875 4.242188 -9.703125 5.671875 -9.703125 C 6.960938 -9.703125 7.941406 -9.28125 8.609375 -8.4375 C 9.285156 -7.59375 9.625 -6.363281 9.625 -4.75 C 9.625 -3.1875 9.269531 -1.972656 8.5625 -1.109375 C 7.851562 -0.253906 6.882812 0.171875 5.65625 0.171875 Z M 5.640625 -0.59375 C 6.617188 -0.59375 7.375 -0.953125 7.90625 -1.671875 C 8.4375 -2.398438 8.703125 -3.414062 8.703125 -4.71875 C 8.703125 -7.507812 7.691406 -8.90625 5.671875 -8.90625 C 4.566406 -8.90625 3.753906 -8.597656 3.234375 -7.984375 C 2.710938 -7.378906 2.453125 -6.390625 2.453125 -5.015625 L 2.453125 -4.734375 C 2.453125 -3.242188 2.703125 -2.179688 3.203125 -1.546875 C 3.703125 -0.910156 4.515625 -0.59375 5.640625 -0.59375 Z M 5.640625 -0.59375 "/></g></g></g><g fill="#000000" fill-opacity="1"><g transform="translate(214.513768, 250.078767)"><g><path d="M 5.34375 -9.703125 C 5.738281 -9.703125 6.171875 -9.660156 6.640625 -9.578125 L 6.46875 -8.734375 C 6.070312 -8.835938 5.660156 -8.890625 5.234375 -8.890625 C 4.421875 -8.890625 3.753906 -8.546875 3.234375 -7.859375 C 2.710938 -7.171875 2.453125 -6.300781 2.453125 -5.25 L 2.453125 0 L 1.59375 0 L 1.59375 -9.515625 L 2.328125 -9.515625 L 2.421875 -7.796875 L 2.46875 -7.796875 C 2.863281 -8.492188 3.28125 -8.984375 3.71875 -9.265625 C 4.164062 -9.554688 4.707031 -9.703125 5.34375 -9.703125 Z M 5.34375 -9.703125 "/></g></g></g><g fill="#000000" fill-opacity="1"><g transform="translate(221.482166, 250.078767)"><g><path d="M 9.453125 -4.765625 C 9.453125 -3.210938 9.078125 -2 8.328125 -1.125 C 7.578125 -0.257812 6.539062 0.171875 5.21875 0.171875 C 4.382812 0.171875 3.648438 -0.0234375 3.015625 -0.421875 C 2.378906 -0.828125 1.890625 -1.40625 1.546875 -2.15625 C 1.210938 -2.914062 1.046875 -3.785156 1.046875 -4.765625 C 1.046875 -6.316406 1.421875 -7.523438 2.171875 -8.390625 C 2.921875 -9.265625 3.953125 -9.703125 5.265625 -9.703125 C 6.578125 -9.703125 7.601562 -9.257812 8.34375 -8.375 C 9.082031 -7.5 9.453125 -6.296875 9.453125 -4.765625 Z M 1.953125 -4.765625 C 1.953125 -3.460938 2.238281 -2.441406 2.8125 -1.703125 C 3.382812 -0.972656 4.195312 -0.609375 5.25 -0.609375 C 6.300781 -0.609375 7.113281 -0.972656 7.6875 -1.703125 C 8.257812 -2.441406 8.546875 -3.460938 8.546875 -4.765625 C 8.546875 -6.078125 8.253906 -7.09375 7.671875 -7.8125 C 7.097656 -8.539062 6.285156 -8.90625 5.234375 -8.90625 C 4.179688 -8.90625 3.367188 -8.546875 2.796875 -7.828125 C 2.234375 -7.109375 1.953125 -6.085938 1.953125 -4.765625 Z M 1.953125 -4.765625 "/></g></g></g><g fill="#000000" fill-opacity="1"><g transform="translate(231.974109, 250.078767)"><g><path d="M 9.015625 -9.515625 L 9.015625 -8.90625 L 7.046875 -8.78125 C 7.566406 -8.132812 7.828125 -7.421875 7.828125 -6.640625 C 7.828125 -5.722656 7.519531 -4.976562 6.90625 -4.40625 C 6.300781 -3.832031 5.488281 -3.546875 4.46875 -3.546875 C 4.03125 -3.546875 3.722656 -3.566406 3.546875 -3.609375 C 3.203125 -3.421875 2.941406 -3.203125 2.765625 -2.953125 C 2.585938 -2.710938 2.5 -2.457031 2.5 -2.1875 C 2.5 -1.882812 2.613281 -1.660156 2.84375 -1.515625 C 3.070312 -1.378906 3.457031 -1.3125 4 -1.3125 L 5.65625 -1.3125 C 6.6875 -1.3125 7.476562 -1.101562 8.03125 -0.6875 C 8.582031 -0.269531 8.859375 0.34375 8.859375 1.15625 C 8.859375 2.164062 8.453125 2.941406 7.640625 3.484375 C 6.828125 4.035156 5.664062 4.3125 4.15625 4.3125 C 2.957031 4.3125 2.03125 4.078125 1.375 3.609375 C 0.71875 3.148438 0.390625 2.507812 0.390625 1.6875 C 0.390625 1.03125 0.59375 0.484375 1 0.046875 C 1.40625 -0.378906 1.957031 -0.671875 2.65625 -0.828125 C 2.363281 -0.941406 2.128906 -1.113281 1.953125 -1.34375 C 1.785156 -1.570312 1.703125 -1.832031 1.703125 -2.125 C 1.703125 -2.757812 2.109375 -3.316406 2.921875 -3.796875 C 2.367188 -4.023438 1.9375 -4.378906 1.625 -4.859375 C 1.3125 -5.347656 1.15625 -5.910156 1.15625 -6.546875 C 1.15625 -7.492188 1.457031 -8.253906 2.0625 -8.828125 C 2.664062 -9.410156 3.484375 -9.703125 4.515625 -9.703125 C 5.140625 -9.703125 5.625 -9.640625 5.96875 -9.515625 Z M 1.3125 1.609375 C 1.3125 2.921875 2.285156 3.578125 4.234375 3.578125 C 6.722656 3.578125 7.96875 2.78125 7.96875 1.1875 C 7.96875 0.613281 7.769531 0.195312 7.375 -0.0625 C 6.988281 -0.320312 6.359375 -0.453125 5.484375 -0.453125 L 3.921875 -0.453125 C 2.179688 -0.453125 1.3125 0.234375 1.3125 1.609375 Z M 2.03125 -6.546875 C 2.03125 -5.804688 2.253906 -5.234375 2.703125 -4.828125 C 3.148438 -4.429688 3.75 -4.234375 4.5 -4.234375 C 5.289062 -4.234375 5.894531 -4.429688 6.3125 -4.828125 C 6.738281 -5.234375 6.953125 -5.816406 6.953125 -6.578125 C 6.953125 -7.390625 6.734375 -8 6.296875 -8.40625 C 5.867188 -8.8125 5.265625 -9.015625 4.484375 -9.015625 C 3.722656 -9.015625 3.125 -8.796875 2.6875 -8.359375 C 2.25 -7.921875 2.03125 -7.316406 2.03125 -6.546875 Z M 2.03125 -6.546875 "/></g></g></g><g fill="#000000" fill-opacity="1"><g transform="translate(241.338168, 250.078767)"><g><path d="M 5.34375 -9.703125 C 5.738281 -9.703125 6.171875 -9.660156 6.640625 -9.578125 L 6.46875 -8.734375 C 6.070312 -8.835938 5.660156 -8.890625 5.234375 -8.890625 C 4.421875 -8.890625 3.753906 -8.546875 3.234375 -7.859375 C 2.710938 -7.171875 2.453125 -6.300781 2.453125 -5.25 L 2.453125 0 L 1.59375 0 L 1.59375 -9.515625 L 2.328125 -9.515625 L 2.421875 -7.796875 L 2.46875 -7.796875 C 2.863281 -8.492188 3.28125 -8.984375 3.71875 -9.265625 C 4.164062 -9.554688 4.707031 -9.703125 5.34375 -9.703125 Z M 5.34375 -9.703125 "/></g></g></g><g fill="#000000" fill-opacity="1"><g transform="translate(248.306566, 250.078767)"><g><path d="M 7.375 0 L 7.15625 -1.5 L 7.078125 -1.5 C 6.597656 -0.894531 6.101562 -0.460938 5.59375 -0.203125 C 5.09375 0.046875 4.5 0.171875 3.8125 0.171875 C 2.882812 0.171875 2.160156 -0.0664062 1.640625 -0.546875 C 1.117188 -1.023438 0.859375 -1.6875 0.859375 -2.53125 C 0.859375 -3.457031 1.242188 -4.175781 2.015625 -4.6875 C 2.785156 -5.195312 3.90625 -5.46875 5.375 -5.5 L 7.1875 -5.5625 L 7.1875 -6.1875 C 7.1875 -7.09375 7 -7.773438 6.625 -8.234375 C 6.257812 -8.691406 5.671875 -8.921875 4.859375 -8.921875 C 3.972656 -8.921875 3.0625 -8.675781 2.125 -8.1875 L 1.796875 -8.9375 C 2.835938 -9.425781 3.867188 -9.671875 4.890625 -9.671875 C 5.929688 -9.671875 6.707031 -9.398438 7.21875 -8.859375 C 7.738281 -8.316406 8 -7.472656 8 -6.328125 L 8 0 Z M 3.875 -0.609375 C 4.882812 -0.609375 5.679688 -0.898438 6.265625 -1.484375 C 6.859375 -2.066406 7.15625 -2.875 7.15625 -3.90625 L 7.15625 -4.84375 L 5.484375 -4.765625 C 4.148438 -4.703125 3.195312 -4.492188 2.625 -4.140625 C 2.0625 -3.785156 1.78125 -3.238281 1.78125 -2.5 C 1.78125 -1.894531 1.960938 -1.425781 2.328125 -1.09375 C 2.691406 -0.769531 3.207031 -0.609375 3.875 -0.609375 Z M 3.875 -0.609375 "/></g></g></g><g fill="#000000" fill-opacity="1"><g transform="translate(257.793031, 250.078767)"><g><path d="M 13.46875 0 L 13.46875 -6.234375 C 13.46875 -7.160156 13.285156 -7.835938 12.921875 -8.265625 C 12.566406 -8.691406 12.015625 -8.90625 11.265625 -8.90625 C 10.296875 -8.90625 9.578125 -8.632812 9.109375 -8.09375 C 8.640625 -7.5625 8.40625 -6.722656 8.40625 -5.578125 L 8.40625 0 L 7.53125 0 L 7.53125 -6.5 C 7.53125 -8.101562 6.796875 -8.90625 5.328125 -8.90625 C 4.328125 -8.90625 3.597656 -8.613281 3.140625 -8.03125 C 2.679688 -7.457031 2.453125 -6.53125 2.453125 -5.25 L 2.453125 0 L 1.59375 0 L 1.59375 -9.515625 L 2.3125 -9.515625 L 2.5 -8.203125 L 2.546875 -8.203125 C 2.804688 -8.679688 3.175781 -9.050781 3.65625 -9.3125 C 4.144531 -9.570312 4.679688 -9.703125 5.265625 -9.703125 C 6.765625 -9.703125 7.726562 -9.132812 8.15625 -8 L 8.1875 -8 C 8.5 -8.550781 8.914062 -8.972656 9.4375 -9.265625 C 9.957031 -9.554688 10.550781 -9.703125 11.21875 -9.703125 C 12.257812 -9.703125 13.035156 -9.421875 13.546875 -8.859375 C 14.066406 -8.304688 14.328125 -7.425781 14.328125 -6.21875 L 14.328125 0 Z M 13.46875 0 "/></g></g></g><g fill="#000000" fill-opacity="1"><g transform="translate(273.600891, 250.078767)"><g><path d="M 7.375 0 L 7.15625 -1.5 L 7.078125 -1.5 C 6.597656 -0.894531 6.101562 -0.460938 5.59375 -0.203125 C 5.09375 0.046875 4.5 0.171875 3.8125 0.171875 C 2.882812 0.171875 2.160156 -0.0664062 1.640625 -0.546875 C 1.117188 -1.023438 0.859375 -1.6875 0.859375 -2.53125 C 0.859375 -3.457031 1.242188 -4.175781 2.015625 -4.6875 C 2.785156 -5.195312 3.90625 -5.46875 5.375 -5.5 L 7.1875 -5.5625 L 7.1875 -6.1875 C 7.1875 -7.09375 7 -7.773438 6.625 -8.234375 C 6.257812 -8.691406 5.671875 -8.921875 4.859375 -8.921875 C 3.972656 -8.921875 3.0625 -8.675781 2.125 -8.1875 L 1.796875 -8.9375 C 2.835938 -9.425781 3.867188 -9.671875 4.890625 -9.671875 C 5.929688 -9.671875 6.707031 -9.398438 7.21875 -8.859375 C 7.738281 -8.316406 8 -7.472656 8 -6.328125 L 8 0 Z M 3.875 -0.609375 C 4.882812 -0.609375 5.679688 -0.898438 6.265625 -1.484375 C 6.859375 -2.066406 7.15625 -2.875 7.15625 -3.90625 L 7.15625 -4.84375 L 5.484375 -4.765625 C 4.148438 -4.703125 3.195312 -4.492188 2.625 -4.140625 C 2.0625 -3.785156 1.78125 -3.238281 1.78125 -2.5 C 1.78125 -1.894531 1.960938 -1.425781 2.328125 -1.09375 C 2.691406 -0.769531 3.207031 -0.609375 3.875 -0.609375 Z M 3.875 -0.609375 "/></g></g></g><g fill="#000000" fill-opacity="1"><g transform="translate(283.087356, 250.078767)"><g><path d="M 5.390625 0.171875 C 4.035156 0.171875 2.972656 -0.253906 2.203125 -1.109375 C 1.429688 -1.960938 1.046875 -3.160156 1.046875 -4.703125 C 1.046875 -6.273438 1.441406 -7.5 2.234375 -8.375 C 3.035156 -9.257812 4.128906 -9.703125 5.515625 -9.703125 C 6.335938 -9.703125 7.128906 -9.554688 7.890625 -9.265625 L 7.640625 -8.5 C 6.828125 -8.769531 6.113281 -8.90625 5.5 -8.90625 C 4.332031 -8.90625 3.445312 -8.546875 2.84375 -7.828125 C 2.25 -7.109375 1.953125 -6.070312 1.953125 -4.71875 C 1.953125 -3.4375 2.25 -2.429688 2.84375 -1.703125 C 3.445312 -0.972656 4.289062 -0.609375 5.375 -0.609375 C 6.238281 -0.609375 7.039062 -0.765625 7.78125 -1.078125 L 7.78125 -0.265625 C 7.175781 0.0234375 6.378906 0.171875 5.390625 0.171875 Z M 6.4375 2.546875 C 6.4375 3.128906 6.238281 3.566406 5.84375 3.859375 C 5.445312 4.160156 4.898438 4.3125 4.203125 4.3125 C 3.804688 4.3125 3.53125 4.273438 3.375 4.203125 L 3.375 3.4375 C 3.550781 3.5 3.820312 3.53125 4.1875 3.53125 C 4.632812 3.53125 4.976562 3.445312 5.21875 3.28125 C 5.457031 3.113281 5.578125 2.878906 5.578125 2.578125 C 5.578125 2.035156 5.015625 1.679688 3.890625 1.515625 L 4.703125 0 L 5.546875 0 L 4.96875 1.03125 C 5.945312 1.238281 6.4375 1.742188 6.4375 2.546875 Z M 6.4375 2.546875 "/></g></g></g><g fill="#000000" fill-opacity="1"><g transform="translate(291.594573, 250.078767)"><g><path d="M 7.375 0 L 7.15625 -1.5 L 7.078125 -1.5 C 6.597656 -0.894531 6.101562 -0.460938 5.59375 -0.203125 C 5.09375 0.046875 4.5 0.171875 3.8125 0.171875 C 2.882812 0.171875 2.160156 -0.0664062 1.640625 -0.546875 C 1.117188 -1.023438 0.859375 -1.6875 0.859375 -2.53125 C 0.859375 -3.457031 1.242188 -4.175781 2.015625 -4.6875 C 2.785156 -5.195312 3.90625 -5.46875 5.375 -5.5 L 7.1875 -5.5625 L 7.1875 -6.1875 C 7.1875 -7.09375 7 -7.773438 6.625 -8.234375 C 6.257812 -8.691406 5.671875 -8.921875 4.859375 -8.921875 C 3.972656 -8.921875 3.0625 -8.675781 2.125 -8.1875 L 1.796875 -8.9375 C 2.835938 -9.425781 3.867188 -9.671875 4.890625 -9.671875 C 5.929688 -9.671875 6.707031 -9.398438 7.21875 -8.859375 C 7.738281 -8.316406 8 -7.472656 8 -6.328125 L 8 0 Z M 3.875 -0.609375 C 4.882812 -0.609375 5.679688 -0.898438 6.265625 -1.484375 C 6.859375 -2.066406 7.15625 -2.875 7.15625 -3.90625 L 7.15625 -4.84375 L 5.484375 -4.765625 C 4.148438 -4.703125 3.195312 -4.492188 2.625 -4.140625 C 2.0625 -3.785156 1.78125 -3.238281 1.78125 -2.5 C 1.78125 -1.894531 1.960938 -1.425781 2.328125 -1.09375 C 2.691406 -0.769531 3.207031 -0.609375 3.875 -0.609375 Z M 5.828125 -10.875 C 5.617188 -10.875 5.398438 -10.925781 5.171875 -11.03125 C 4.941406 -11.144531 4.644531 -11.359375 4.28125 -11.671875 C 4.09375 -11.816406 3.910156 -11.945312 3.734375 -12.0625 C 3.554688 -12.1875 3.375 -12.25 3.1875 -12.25 C 2.925781 -12.25 2.707031 -12.144531 2.53125 -11.9375 C 2.351562 -11.738281 2.210938 -11.382812 2.109375 -10.875 L 1.46875 -10.875 C 1.53125 -11.519531 1.710938 -12.023438 2.015625 -12.390625 C 2.328125 -12.765625 2.734375 -12.953125 3.234375 -12.953125 C 3.503906 -12.953125 3.753906 -12.878906 3.984375 -12.734375 C 4.222656 -12.585938 4.46875 -12.414062 4.71875 -12.21875 C 4.914062 -12.0625 5.109375 -11.914062 5.296875 -11.78125 C 5.484375 -11.65625 5.660156 -11.59375 5.828125 -11.59375 C 6.097656 -11.59375 6.320312 -11.695312 6.5 -11.90625 C 6.675781 -12.125 6.816406 -12.472656 6.921875 -12.953125 L 7.578125 -12.953125 C 7.484375 -12.273438 7.28125 -11.757812 6.96875 -11.40625 C 6.664062 -11.050781 6.285156 -10.875 5.828125 -10.875 Z M 5.828125 -10.875 "/></g></g></g><g fill="#000000" fill-opacity="1"><g transform="translate(301.081038, 250.078767)"><g><path d="M 9.453125 -4.765625 C 9.453125 -3.210938 9.078125 -2 8.328125 -1.125 C 7.578125 -0.257812 6.539062 0.171875 5.21875 0.171875 C 4.382812 0.171875 3.648438 -0.0234375 3.015625 -0.421875 C 2.378906 -0.828125 1.890625 -1.40625 1.546875 -2.15625 C 1.210938 -2.914062 1.046875 -3.785156 1.046875 -4.765625 C 1.046875 -6.316406 1.421875 -7.523438 2.171875 -8.390625 C 2.921875 -9.265625 3.953125 -9.703125 5.265625 -9.703125 C 6.578125 -9.703125 7.601562 -9.257812 8.34375 -8.375 C 9.082031 -7.5 9.453125 -6.296875 9.453125 -4.765625 Z M 1.953125 -4.765625 C 1.953125 -3.460938 2.238281 -2.441406 2.8125 -1.703125 C 3.382812 -0.972656 4.195312 -0.609375 5.25 -0.609375 C 6.300781 -0.609375 7.113281 -0.972656 7.6875 -1.703125 C 8.257812 -2.441406 8.546875 -3.460938 8.546875 -4.765625 C 8.546875 -6.078125 8.253906 -7.09375 7.671875 -7.8125 C 7.097656 -8.539062 6.285156 -8.90625 5.234375 -8.90625 C 4.179688 -8.90625 3.367188 -8.546875 2.796875 -7.828125 C 2.234375 -7.109375 1.953125 -6.085938 1.953125 -4.765625 Z M 1.953125 -4.765625 "/></g></g></g><g fill="#000000" fill-opacity="1"><g transform="translate(311.572252, 250.078767)"><g/></g></g><g fill="#000000" fill-opacity="1"><g transform="translate(138.556635, 274.828765)"><g><path d="M 5.390625 0.171875 C 4.035156 0.171875 2.972656 -0.253906 2.203125 -1.109375 C 1.429688 -1.960938 1.046875 -3.160156 1.046875 -4.703125 C 1.046875 -6.273438 1.441406 -7.5 2.234375 -8.375 C 3.035156 -9.257812 4.128906 -9.703125 5.515625 -9.703125 C 6.335938 -9.703125 7.128906 -9.554688 7.890625 -9.265625 L 7.640625 -8.5 C 6.828125 -8.769531 6.113281 -8.90625 5.5 -8.90625 C 4.332031 -8.90625 3.445312 -8.546875 2.84375 -7.828125 C 2.25 -7.109375 1.953125 -6.070312 1.953125 -4.71875 C 1.953125 -3.4375 2.25 -2.429688 2.84375 -1.703125 C 3.445312 -0.972656 4.289062 -0.609375 5.375 -0.609375 C 6.238281 -0.609375 7.039062 -0.765625 7.78125 -1.078125 L 7.78125 -0.265625 C 7.175781 0.0234375 6.378906 0.171875 5.390625 0.171875 Z M 5.390625 0.171875 "/></g></g></g><g fill="#000000" fill-opacity="1"><g transform="translate(147.063852, 274.828765)"><g><path d="M 9.453125 -4.765625 C 9.453125 -3.210938 9.078125 -2 8.328125 -1.125 C 7.578125 -0.257812 6.539062 0.171875 5.21875 0.171875 C 4.382812 0.171875 3.648438 -0.0234375 3.015625 -0.421875 C 2.378906 -0.828125 1.890625 -1.40625 1.546875 -2.15625 C 1.210938 -2.914062 1.046875 -3.785156 1.046875 -4.765625 C 1.046875 -6.316406 1.421875 -7.523438 2.171875 -8.390625 C 2.921875 -9.265625 3.953125 -9.703125 5.265625 -9.703125 C 6.578125 -9.703125 7.601562 -9.257812 8.34375 -8.375 C 9.082031 -7.5 9.453125 -6.296875 9.453125 -4.765625 Z M 1.953125 -4.765625 C 1.953125 -3.460938 2.238281 -2.441406 2.8125 -1.703125 C 3.382812 -0.972656 4.195312 -0.609375 5.25 -0.609375 C 6.300781 -0.609375 7.113281 -0.972656 7.6875 -1.703125 C 8.257812 -2.441406 8.546875 -3.460938 8.546875 -4.765625 C 8.546875 -6.078125 8.253906 -7.09375 7.671875 -7.8125 C 7.097656 -8.539062 6.285156 -8.90625 5.234375 -8.90625 C 4.179688 -8.90625 3.367188 -8.546875 2.796875 -7.828125 C 2.234375 -7.109375 1.953125 -6.085938 1.953125 -4.765625 Z M 1.953125 -4.765625 "/></g></g></g><g fill="#000000" fill-opacity="1"><g transform="translate(157.555795, 274.828765)"><g><path d="M 2.453125 0 L 1.59375 0 L 1.59375 -13.609375 L 2.453125 -13.609375 Z M 2.453125 0 "/></g></g></g><g fill="#000000" fill-opacity="1"><g transform="translate(161.603936, 274.828765)"><g><path d="M 7.375 0 L 7.15625 -1.5 L 7.078125 -1.5 C 6.597656 -0.894531 6.101562 -0.460938 5.59375 -0.203125 C 5.09375 0.046875 4.5 0.171875 3.8125 0.171875 C 2.882812 0.171875 2.160156 -0.0664062 1.640625 -0.546875 C 1.117188 -1.023438 0.859375 -1.6875 0.859375 -2.53125 C 0.859375 -3.457031 1.242188 -4.175781 2.015625 -4.6875 C 2.785156 -5.195312 3.90625 -5.46875 5.375 -5.5 L 7.1875 -5.5625 L 7.1875 -6.1875 C 7.1875 -7.09375 7 -7.773438 6.625 -8.234375 C 6.257812 -8.691406 5.671875 -8.921875 4.859375 -8.921875 C 3.972656 -8.921875 3.0625 -8.675781 2.125 -8.1875 L 1.796875 -8.9375 C 2.835938 -9.425781 3.867188 -9.671875 4.890625 -9.671875 C 5.929688 -9.671875 6.707031 -9.398438 7.21875 -8.859375 C 7.738281 -8.316406 8 -7.472656 8 -6.328125 L 8 0 Z M 3.875 -0.609375 C 4.882812 -0.609375 5.679688 -0.898438 6.265625 -1.484375 C 6.859375 -2.066406 7.15625 -2.875 7.15625 -3.90625 L 7.15625 -4.84375 L 5.484375 -4.765625 C 4.148438 -4.703125 3.195312 -4.492188 2.625 -4.140625 C 2.0625 -3.785156 1.78125 -3.238281 1.78125 -2.5 C 1.78125 -1.894531 1.960938 -1.425781 2.328125 -1.09375 C 2.691406 -0.769531 3.207031 -0.609375 3.875 -0.609375 Z M 3.875 -0.609375 "/></g></g></g><g fill="#000000" fill-opacity="1"><g transform="translate(171.090401, 274.828765)"><g><path d="M 5.609375 -9.703125 C 6.941406 -9.703125 7.941406 -9.28125 8.609375 -8.4375 C 9.285156 -7.601562 9.625 -6.378906 9.625 -4.765625 C 9.625 -3.179688 9.269531 -1.960938 8.5625 -1.109375 C 7.851562 -0.253906 6.859375 0.171875 5.578125 0.171875 C 4.898438 0.171875 4.289062 0.03125 3.75 -0.25 C 3.207031 -0.53125 2.773438 -0.925781 2.453125 -1.4375 L 2.375 -1.4375 L 2.140625 0 L 1.59375 0 L 1.59375 -13.609375 L 2.453125 -13.609375 L 2.453125 -10.1875 C 2.453125 -9.675781 2.441406 -9.207031 2.421875 -8.78125 L 2.390625 -8.03125 L 2.453125 -8.03125 C 2.816406 -8.601562 3.253906 -9.023438 3.765625 -9.296875 C 4.273438 -9.566406 4.890625 -9.703125 5.609375 -9.703125 Z M 5.59375 -8.90625 C 4.46875 -8.90625 3.660156 -8.582031 3.171875 -7.9375 C 2.691406 -7.300781 2.453125 -6.242188 2.453125 -4.765625 L 2.453125 -4.625 C 2.453125 -3.1875 2.703125 -2.15625 3.203125 -1.53125 C 3.710938 -0.90625 4.503906 -0.59375 5.578125 -0.59375 C 6.609375 -0.59375 7.382812 -0.957031 7.90625 -1.6875 C 8.4375 -2.414062 8.703125 -3.445312 8.703125 -4.78125 C 8.703125 -7.53125 7.664062 -8.90625 5.59375 -8.90625 Z M 5.59375 -8.90625 "/></g></g></g><g fill="#000000" fill-opacity="1"><g transform="translate(181.748466, 274.828765)"><g><path d="M 9.453125 -4.765625 C 9.453125 -3.210938 9.078125 -2 8.328125 -1.125 C 7.578125 -0.257812 6.539062 0.171875 5.21875 0.171875 C 4.382812 0.171875 3.648438 -0.0234375 3.015625 -0.421875 C 2.378906 -0.828125 1.890625 -1.40625 1.546875 -2.15625 C 1.210938 -2.914062 1.046875 -3.785156 1.046875 -4.765625 C 1.046875 -6.316406 1.421875 -7.523438 2.171875 -8.390625 C 2.921875 -9.265625 3.953125 -9.703125 5.265625 -9.703125 C 6.578125 -9.703125 7.601562 -9.257812 8.34375 -8.375 C 9.082031 -7.5 9.453125 -6.296875 9.453125 -4.765625 Z M 1.953125 -4.765625 C 1.953125 -3.460938 2.238281 -2.441406 2.8125 -1.703125 C 3.382812 -0.972656 4.195312 -0.609375 5.25 -0.609375 C 6.300781 -0.609375 7.113281 -0.972656 7.6875 -1.703125 C 8.257812 -2.441406 8.546875 -3.460938 8.546875 -4.765625 C 8.546875 -6.078125 8.253906 -7.09375 7.671875 -7.8125 C 7.097656 -8.539062 6.285156 -8.90625 5.234375 -8.90625 C 4.179688 -8.90625 3.367188 -8.546875 2.796875 -7.828125 C 2.234375 -7.109375 1.953125 -6.085938 1.953125 -4.765625 Z M 1.953125 -4.765625 "/></g></g></g><g fill="#000000" fill-opacity="1"><g transform="translate(192.240408, 274.828765)"><g><path d="M 5.34375 -9.703125 C 5.738281 -9.703125 6.171875 -9.660156 6.640625 -9.578125 L 6.46875 -8.734375 C 6.070312 -8.835938 5.660156 -8.890625 5.234375 -8.890625 C 4.421875 -8.890625 3.753906 -8.546875 3.234375 -7.859375 C 2.710938 -7.171875 2.453125 -6.300781 2.453125 -5.25 L 2.453125 0 L 1.59375 0 L 1.59375 -9.515625 L 2.328125 -9.515625 L 2.421875 -7.796875 L 2.46875 -7.796875 C 2.863281 -8.492188 3.28125 -8.984375 3.71875 -9.265625 C 4.164062 -9.554688 4.707031 -9.703125 5.34375 -9.703125 Z M 5.34375 -9.703125 "/></g></g></g><g fill="#000000" fill-opacity="1"><g transform="translate(199.208807, 274.828765)"><g><path d="M 7.375 0 L 7.15625 -1.5 L 7.078125 -1.5 C 6.597656 -0.894531 6.101562 -0.460938 5.59375 -0.203125 C 5.09375 0.046875 4.5 0.171875 3.8125 0.171875 C 2.882812 0.171875 2.160156 -0.0664062 1.640625 -0.546875 C 1.117188 -1.023438 0.859375 -1.6875 0.859375 -2.53125 C 0.859375 -3.457031 1.242188 -4.175781 2.015625 -4.6875 C 2.785156 -5.195312 3.90625 -5.46875 5.375 -5.5 L 7.1875 -5.5625 L 7.1875 -6.1875 C 7.1875 -7.09375 7 -7.773438 6.625 -8.234375 C 6.257812 -8.691406 5.671875 -8.921875 4.859375 -8.921875 C 3.972656 -8.921875 3.0625 -8.675781 2.125 -8.1875 L 1.796875 -8.9375 C 2.835938 -9.425781 3.867188 -9.671875 4.890625 -9.671875 C 5.929688 -9.671875 6.707031 -9.398438 7.21875 -8.859375 C 7.738281 -8.316406 8 -7.472656 8 -6.328125 L 8 0 Z M 3.875 -0.609375 C 4.882812 -0.609375 5.679688 -0.898438 6.265625 -1.484375 C 6.859375 -2.066406 7.15625 -2.875 7.15625 -3.90625 L 7.15625 -4.84375 L 5.484375 -4.765625 C 4.148438 -4.703125 3.195312 -4.492188 2.625 -4.140625 C 2.0625 -3.785156 1.78125 -3.238281 1.78125 -2.5 C 1.78125 -1.894531 1.960938 -1.425781 2.328125 -1.09375 C 2.691406 -0.769531 3.207031 -0.609375 3.875 -0.609375 Z M 3.875 -0.609375 "/></g></g></g><g fill="#000000" fill-opacity="1"><g transform="translate(208.695272, 274.828765)"><g><path d="M 4.109375 -0.59375 C 4.648438 -0.59375 5.128906 -0.640625 5.546875 -0.734375 L 5.546875 -0.03125 C 5.117188 0.101562 4.632812 0.171875 4.09375 0.171875 C 3.25 0.171875 2.625 -0.0507812 2.21875 -0.5 C 1.820312 -0.945312 1.625 -1.648438 1.625 -2.609375 L 1.625 -8.765625 L 0.21875 -8.765625 L 0.21875 -9.265625 L 1.625 -9.65625 L 2.0625 -11.8125 L 2.515625 -11.8125 L 2.515625 -9.515625 L 5.296875 -9.515625 L 5.296875 -8.765625 L 2.515625 -8.765625 L 2.515625 -2.734375 C 2.515625 -2.003906 2.640625 -1.460938 2.890625 -1.109375 C 3.148438 -0.765625 3.554688 -0.59375 4.109375 -0.59375 Z M 4.109375 -0.59375 "/></g></g></g><g fill="#000000" fill-opacity="1"><g transform="translate(214.693166, 274.828765)"><g><path d="M 2.453125 0 L 1.59375 0 L 1.59375 -9.515625 L 2.453125 -9.515625 Z M 1.46875 -12.15625 C 1.46875 -12.71875 1.648438 -13 2.015625 -13 C 2.203125 -13 2.34375 -12.925781 2.4375 -12.78125 C 2.539062 -12.632812 2.59375 -12.425781 2.59375 -12.15625 C 2.59375 -11.894531 2.539062 -11.6875 2.4375 -11.53125 C 2.34375 -11.382812 2.203125 -11.3125 2.015625 -11.3125 C 1.648438 -11.3125 1.46875 -11.59375 1.46875 -12.15625 Z M 1.46875 -12.15625 "/></g></g></g><g fill="#000000" fill-opacity="1"><g transform="translate(218.741307, 274.828765)"><g><path d="M 3.671875 0 L 0 -9.515625 L 0.890625 -9.515625 L 3.359375 -3.046875 C 3.679688 -2.210938 3.925781 -1.488281 4.09375 -0.875 L 4.140625 -0.875 C 4.378906 -1.664062 4.625 -2.394531 4.875 -3.0625 L 7.328125 -9.515625 L 8.21875 -9.515625 L 4.546875 0 Z M 3.671875 0 "/></g></g></g><g fill="#000000" fill-opacity="1"><g transform="translate(226.959995, 274.828765)"><g><path d="M 7.375 0 L 7.15625 -1.5 L 7.078125 -1.5 C 6.597656 -0.894531 6.101562 -0.460938 5.59375 -0.203125 C 5.09375 0.046875 4.5 0.171875 3.8125 0.171875 C 2.882812 0.171875 2.160156 -0.0664062 1.640625 -0.546875 C 1.117188 -1.023438 0.859375 -1.6875 0.859375 -2.53125 C 0.859375 -3.457031 1.242188 -4.175781 2.015625 -4.6875 C 2.785156 -5.195312 3.90625 -5.46875 5.375 -5.5 L 7.1875 -5.5625 L 7.1875 -6.1875 C 7.1875 -7.09375 7 -7.773438 6.625 -8.234375 C 6.257812 -8.691406 5.671875 -8.921875 4.859375 -8.921875 C 3.972656 -8.921875 3.0625 -8.675781 2.125 -8.1875 L 1.796875 -8.9375 C 2.835938 -9.425781 3.867188 -9.671875 4.890625 -9.671875 C 5.929688 -9.671875 6.707031 -9.398438 7.21875 -8.859375 C 7.738281 -8.316406 8 -7.472656 8 -6.328125 L 8 0 Z M 3.875 -0.609375 C 4.882812 -0.609375 5.679688 -0.898438 6.265625 -1.484375 C 6.859375 -2.066406 7.15625 -2.875 7.15625 -3.90625 L 7.15625 -4.84375 L 5.484375 -4.765625 C 4.148438 -4.703125 3.195312 -4.492188 2.625 -4.140625 C 2.0625 -3.785156 1.78125 -3.238281 1.78125 -2.5 C 1.78125 -1.894531 1.960938 -1.425781 2.328125 -1.09375 C 2.691406 -0.769531 3.207031 -0.609375 3.875 -0.609375 Z M 3.875 -0.609375 "/></g></g></g></svg>